<?xml version="1.0" encoding="UTF-8"?>
<!DOCTYPE svg PUBLIC "-//W3C//DTD SVG 1.1//EN" "http://www.w3.org/Graphics/SVG/1.1/DTD/svg11.dtd">
<!-- Creator: CorelDRAW 2018 (64 Bit) -->
<svg xmlns="http://www.w3.org/2000/svg" xml:space="preserve" width="100px" height="100px" version="1.1" style="shape-rendering:geometricPrecision; text-rendering:geometricPrecision; image-rendering:optimizeQuality; fill-rule:evenodd; clip-rule:evenodd"
viewBox="0 0 100 100"
 xmlns:xlink="http://www.w3.org/1999/xlink">
 <defs>
  <style type="text/css">
   <![CDATA[
    .fil0 {fill:#FFC107;fill-rule:nonzero}
   ]]>
  </style>
 </defs>
 <g id="Capa_x0020_1">
  <metadata id="CorelCorpID_0Corel-Layer"/>
  <path class="fil0" d="M46.25 12.39c0,-0.27 0.11,-0.51 0.28,-0.69 0.18,-0.17 0.43,-0.28 0.69,-0.28 0.27,0 0.51,0.11 0.69,0.28 0.17,0.18 0.28,0.42 0.28,0.69l0 5.45c0,0.26 -0.11,0.51 -0.28,0.68 -0.18,0.18 -0.42,0.29 -0.69,0.29 -0.26,0 -0.51,-0.11 -0.68,-0.29 -0.18,-0.17 -0.29,-0.42 -0.29,-0.68l0 -5.45zm30.63 55.42c-0.42,-1.6 -0.49,-3.29 -0.47,-4.71 0.01,-0.78 0.24,-1.39 0.05,-2.12 -0.16,-0.59 -0.7,-0.76 -1.28,-0.6 -0.82,0.22 -1.39,0.94 -1.54,1.62 -0.16,0.84 -0.28,1.69 -0.31,2.58 -0.75,0.66 -1.51,1.13 -2.81,1.47 -0.48,0.13 -1.06,0.21 -1.45,0.18 1.66,-3.46 4.48,-9.61 3.23,-14.28 -0.45,-1.69 -1.68,-2.6 -3.21,-2.19 -5.69,1.53 -5.22,13.61 -3.84,21.55 -0.58,0.87 -1.29,1.69 -2.18,1.93 -0.56,0.15 -0.78,-0.42 -0.94,-1.03 -0.74,-2.75 0.33,-5.41 -0.35,-7.97 -0.14,-0.51 -0.48,-0.62 -1.07,-0.46 -0.77,0.21 -1.54,0.84 -1.48,1.68 -0.03,2.04 -0.32,4.31 -0.1,6.57 -0.64,1.17 -1.5,2.51 -2.82,2.87 -1.11,0.3 -2.43,-0.23 -3.14,-2.88 -0.67,-2.49 -0.37,-3.34 0.35,-5.81l4.71 -1.26c0.46,-0.13 0.66,-0.69 0.53,-1.19 -0.24,-0.9 -0.91,-0.79 -2.03,-0.49l-1.81 0.49c-0.23,0.06 -0.41,0.12 -0.56,0.15 0.56,-1.62 1.36,-3.64 0.8,-5.73 -0.45,-1.69 -1.66,-3.4 -3.31,-2.96 -0.54,0.15 -0.99,0.53 -1.37,1.16 -1.29,2.22 -1.43,5.74 -1.21,8.89l-1.34 0.36c-0.89,0.24 -1.53,0.51 -1.36,1.17 0.17,0.63 1.29,0.93 2.87,0.5 0,0.51 0.03,1.07 0.08,1.64 -0.42,1.23 -0.9,3.09 -1.16,3.16 -0.18,0.05 -0.36,-0.07 -0.45,-0.39 -0.68,-2.57 -2.67,-3.85 -4.75,-3.29 -3.24,0.87 -4.49,4.57 -3.59,7.9 0.2,0.75 0.47,1.44 0.82,2.06 -0.67,1 -1.66,2.1 -3.05,2.47 -0.98,0.26 -1.54,-0.77 -1.98,-1.64 -1.27,-2.49 -2.5,-4.48 -5.04,-4.84 3.65,-1.29 7.19,-4.13 6.14,-8.04 -1.02,-3.82 -5.17,-4.76 -9.04,-3.72 -1.4,0.37 -2.68,0.91 -3.83,1.62 -5.31,3.23 -8.57,9.42 -6.6,16.77 1.12,4.17 4.08,8.55 8.39,7.39 0.89,-0.23 1.58,-0.7 2.06,-1.4 1.84,-2.65 1.03,-7.26 0.31,-11.47l0.72 -0.19c0.3,-0.08 0.58,-0.01 0.86,0.22 2.48,1.98 3.38,9.61 7.95,8.39 2.39,-0.64 3.95,-2.15 5.2,-3.51 0.74,0.34 1.6,0.43 2.57,0.17 3.32,-0.89 3.98,-4.33 3.46,-6.28 0.67,-0.18 1.28,-0.89 1.64,-1.75l0.06 0.25c0.85,3.16 3.15,5.67 6.57,4.75 1.33,-0.36 2.33,-1.29 3.1,-2.5 0.51,0.88 1.32,1.2 2.55,0.87 1.32,-0.35 2.43,-1.24 3.3,-2.2 0.13,0.62 0.27,1.19 0.41,1.7 0.78,2.93 2.2,6.86 4.75,6.17 3.19,-0.85 3.34,-5.32 2.56,-8.24 -0.6,-2.25 -1.87,-3.89 -2.95,-5.2 0.95,-0.29 2.03,-0.64 2.95,-1.1 0.09,0.66 0.24,1.36 0.44,2.11 0.52,1.94 2.11,3.15 4,2.64 1.13,-0.3 1.9,-1.25 2.42,-2.05l0.08 1.6c-1.37,1.89 -2.74,3.61 -3.69,5.71 -0.6,1.32 -1.53,3.18 -1.07,4.91 0.46,1.72 1.73,2.15 3.41,1.7 4.97,-1.33 4.76,-7.43 4.36,-11.95l-0.33 -2.83c-0.17,-1.44 -0.23,-2.55 -0.36,-3.82 -0.18,-1.8 -0.02,-4.02 -0.47,-5.67 -0.13,-0.49 -0.59,-0.58 -1.08,-0.45 -1.14,0.31 -1.85,1.33 -1.81,2.34l0.1 3.84c0.04,1.21 0.14,3.67 -1.18,4.02 -0.78,0.21 -1.18,-0.58 -1.39,-1.36zm-52.3 5.45c-0.51,0.12 -1.18,0.1 -1.72,0.25 -0.54,0.14 -0.5,0.74 -0.38,1.19 0.26,0.96 1.49,1.08 2.44,1.25 0.62,2.33 2.31,8.87 0,9.49 -2.36,0.63 -3.84,-2.22 -4.5,-4.67 -1.85,-6.93 0.43,-13.33 7.54,-15.23 2.27,-0.61 4.68,-0.31 5.24,1.78 0.77,2.87 -2.46,4.55 -5.65,5.48 -0.16,-1.03 -0.18,-2.1 -0.41,-3.02l-0.03 -0.11c-0.18,-0.69 -0.59,-0.94 -1.36,-0.74 -1.8,0.48 -1.53,2.69 -1.17,4.33zm19 -0.69c0.3,1.13 1.65,1.43 2.58,1.67 0.36,1.34 0.07,3.51 -1.26,3.87 -1.62,0.44 -2.54,-0.9 -2.98,-2.54 -0.47,-1.74 0.08,-4.25 1.8,-4.71 0.12,-0.03 0.19,-0.02 0.2,0.03 0.11,0.42 -0.52,1 -0.34,1.68zm8.78 -8.13c-0.26,0.07 -0.5,0.12 -0.75,0.2 -0.05,-1.27 -0.6,-6.25 0.71,-6.6 0.53,-0.14 0.77,0.27 0.91,0.78 0.48,1.8 -0.44,4.14 -0.87,5.62zm8.63 -2.42c1.35,-0.37 2.04,-1.42 1.66,-2.81 -0.32,-1.2 -1.29,-1.49 -2.42,-1.19 -1.35,0.36 -2.19,1.42 -1.85,2.69 0.33,1.24 1.29,1.66 2.61,1.31zm9.55 16.73c-0.47,0.12 -1.15,-2.22 -1.61,-3.93 -0.63,-2.35 -1.02,-4.69 -1.54,-7.07 1.33,1.46 2.76,3.66 3.57,6.66l0.01 0.06c0.37,1.36 1.03,3.89 -0.43,4.28zm-0.22 -25.02c0.86,3.22 -1.65,8.99 -2.93,11.86 0.02,-1.17 -0.82,-12.19 1.98,-12.95 0.51,-0.13 0.77,0.43 0.95,1.09zm8.23 27.56c-0.33,0.09 -0.53,-0.01 -0.61,-0.32 -0.05,-0.18 -0.06,-0.44 -0.01,-0.76 0.3,-2.07 1.49,-4.3 2.82,-5.81 0.14,2.08 0.2,6.25 -2.2,6.89zm-18.39 -57.89c-0.18,0.2 -0.42,0.31 -0.67,0.32 -0.25,0.01 -0.5,-0.07 -0.7,-0.25 -0.2,-0.18 -0.3,-0.43 -0.32,-0.68 -0.01,-0.24 0.08,-0.49 0.25,-0.69l3.63 -4c0.19,-0.2 0.43,-0.31 0.68,-0.32 0.24,-0.01 0.5,0.07 0.69,0.25 0.2,0.18 0.31,0.43 0.32,0.67 0.01,0.25 -0.07,0.51 -0.25,0.7l-3.63 4zm-24.56 -0.96c0.19,0.19 0.29,0.43 0.29,0.68 0,0.25 -0.1,0.5 -0.29,0.69 -0.19,0.19 -0.43,0.28 -0.68,0.28 -0.25,0 -0.5,-0.09 -0.69,-0.28l-3.95 -3.95c-0.19,-0.19 -0.28,-0.44 -0.28,-0.69 0,-0.24 0.09,-0.49 0.28,-0.68 0.19,-0.2 0.44,-0.29 0.69,-0.29 0.24,0 0.49,0.09 0.68,0.28l3.95 3.96zm25.18 28.82l-0.13 -0.08c-0.04,-0.03 -1.78,-1.51 -7.36,-1.75 -0.2,-0.01 -0.39,-0.1 -0.52,-0.24 -0.13,-0.14 -0.2,-0.33 -0.2,-0.53 0.01,-0.22 0.11,-0.41 0.24,-0.54 0.15,-0.13 0.34,-0.2 0.53,-0.2l0.02 0c1.74,0.08 3.16,0.28 4.29,0.52 1.27,0.28 2.19,0.62 2.82,0.91l-0.08 -0.2c-0.05,-0.08 -0.1,-0.16 -0.17,-0.24 -0.06,-0.07 -0.14,-0.13 -0.22,-0.18 -0.08,-0.05 -0.17,-0.09 -0.26,-0.12 -4.48,-1.32 -8.72,-1.65 -13.36,-0.98 -0.49,0.07 -1.01,0.17 -1.56,0.29l-0.77 0.18 -0.75 0.2c-0.47,0.15 -0.95,0.29 -1.41,0.45 -1.36,0.46 -2.68,0.9 -4.24,0.85l-0.59 -0.03 -0.57 -0.07 -0.56 -0.09 -0.57 -0.13 -0.55 -0.16 -0.53 -0.19c-0.35,-0.13 -0.7,-0.29 -1.03,-0.47l-0.5 -0.28 -0.47 -0.32 -0.46 -0.35 -0.42 -0.36 -0.41 -0.4 -0.4 -0.45 -0.36 -0.47 -0.33 -0.48 -0.31 -0.53 -0.27 -0.55 -0.25 -0.57 -0.21 -0.6 -0.18 -0.64 -0.15 -0.66 -0.11 -0.68 -0.07 -0.69 -0.04 -0.97c0,-1.47 0.21,-2.73 0.58,-3.82 0.41,-1.2 1.03,-2.19 1.78,-2.99 0.79,-0.85 1.72,-1.5 2.7,-1.97 1.09,-0.53 2.26,-0.85 3.38,-1.03 0.25,-1.66 0.77,-3.07 1.49,-4.23 0.8,-1.32 1.86,-2.33 3.06,-3.06 0.74,-0.45 1.55,-0.79 2.38,-1.03 0.87,-0.24 1.78,-0.37 2.68,-0.39 0.88,-0.03 1.77,0.05 2.64,0.22 0.88,0.17 1.74,0.43 2.55,0.78 1.16,0.5 2.24,1.18 3.17,2.02 0.88,0.79 1.62,1.73 2.17,2.8 0.04,0.06 0.15,0.26 0.28,0.55l0.16 0.36c0.94,-0.55 1.96,-0.91 3.01,-1.1 1.15,-0.21 2.33,-0.2 3.49,0 0.64,0.11 1.27,0.28 1.88,0.51 0.61,0.22 1.21,0.5 1.78,0.84 0.57,0.34 1.12,0.73 1.64,1.18 0.5,0.43 0.97,0.92 1.38,1.45 0.97,1.22 1.71,2.69 2.09,4.36 0.35,1.54 0.41,3.25 0.09,5.1 -0.17,1 -0.48,1.89 -0.89,2.68 -0.45,0.88 -1.03,1.64 -1.67,2.29 -0.73,0.74 -1.54,1.35 -2.38,1.84 -1.01,0.6 -2.05,1.04 -3,1.36l-0.03 0.01c-0.23,0.08 -0.48,0.05 -0.68,-0.05 -0.2,-0.1 -0.37,-0.27 -0.45,-0.5l0 -0.02c-0.08,-0.24 -0.06,-0.48 0.04,-0.69 0.11,-0.21 0.29,-0.38 0.52,-0.45 0.84,-0.29 1.76,-0.67 2.65,-1.2 0.72,-0.42 1.43,-0.94 2.04,-1.56 0.52,-0.54 0.99,-1.15 1.35,-1.85 0.33,-0.64 0.58,-1.36 0.72,-2.16 0.28,-1.6 0.23,-3.06 -0.07,-4.36 -0.32,-1.41 -0.93,-2.65 -1.74,-3.68 -0.35,-0.44 -0.75,-0.85 -1.16,-1.21 -0.43,-0.37 -0.89,-0.7 -1.37,-0.98 -0.47,-0.28 -0.97,-0.52 -1.48,-0.7 -0.51,-0.19 -1.04,-0.34 -1.57,-0.43 -0.94,-0.16 -1.91,-0.17 -2.85,0 -0.89,0.16 -1.76,0.47 -2.57,0.96l-0.28 0.19 0.05 0.58c0.01,0.24 0.01,0.48 0,0.72 -0.02,0.3 -0.11,0.56 -0.23,0.8 -0.14,0.25 -0.33,0.46 -0.55,0.63l-0.3 0.18 -0.32 0.13 -0.35 0.08 -0.35 0.01c-0.26,-0.02 -0.52,-0.09 -0.75,-0.22 -0.22,-0.12 -0.43,-0.29 -0.59,-0.52 -0.22,-0.29 -0.36,-0.62 -0.36,-1 -0.01,-0.36 0.12,-0.76 0.43,-1.18 0.14,-0.19 0.33,-0.39 0.56,-0.6 0.18,-0.16 0.4,-0.33 0.65,-0.49l-0.16 -0.43 -0.27 -0.61c-0.45,-0.87 -1.06,-1.64 -1.79,-2.29 -0.77,-0.7 -1.68,-1.26 -2.65,-1.68 -0.71,-0.3 -1.44,-0.53 -2.19,-0.68 -0.74,-0.14 -1.5,-0.21 -2.25,-0.19 -0.75,0.02 -1.5,0.13 -2.22,0.33 -0.68,0.19 -1.34,0.47 -1.95,0.84 -0.96,0.58 -1.8,1.4 -2.45,2.46 -0.58,0.94 -1,2.09 -1.23,3.44 0.32,0.11 0.61,0.22 0.86,0.32 0.31,0.14 0.57,0.27 0.79,0.41 0.24,0.14 0.44,0.3 0.61,0.46 0.16,0.16 0.29,0.33 0.39,0.49 0.11,0.2 0.18,0.4 0.2,0.6 0.03,0.21 0.02,0.42 -0.03,0.62l-0.1 0.28 -0.12 0.23c-0.08,0.14 -0.18,0.27 -0.29,0.37 -0.11,0.12 -0.24,0.22 -0.37,0.3 -0.17,0.11 -0.37,0.2 -0.56,0.25 -0.2,0.06 -0.41,0.08 -0.61,0.08 -0.2,0 -0.41,-0.03 -0.6,-0.08 -0.2,-0.06 -0.39,-0.14 -0.56,-0.25 -0.14,-0.08 -0.27,-0.19 -0.4,-0.31 -0.11,-0.11 -0.22,-0.24 -0.31,-0.39 -0.21,-0.33 -0.37,-0.68 -0.48,-1.02 -0.08,-0.24 -0.14,-0.48 -0.19,-0.69 -0.89,0.16 -1.8,0.43 -2.66,0.84 -0.78,0.38 -1.52,0.89 -2.13,1.55 -0.59,0.64 -1.08,1.43 -1.41,2.41 -0.3,0.89 -0.47,1.93 -0.46,3.16 0.01,0.5 0.05,0.95 0.1,1.45l0.09 0.58 0.12 0.55 0.15 0.54 0.17 0.47 0.21 0.48 0.22 0.46 0.25 0.42 0.27 0.39 0.28 0.37 0.31 0.34 0.33 0.33 0.34 0.3 0.36 0.27 0.38 0.25 0.4 0.23 0.4 0.19 0.43 0.18 0.44 0.16 0.44 0.13 0.45 0.1 0.48 0.08 0.96 0.08c1.24,0.04 2.41,-0.35 3.6,-0.75 -0.4,-0.4 -0.68,-0.89 -0.89,-1.37 -0.5,-1.18 -0.52,-2.36 -0.52,-2.37 0,-0.24 0.09,-0.47 0.25,-0.64 0.16,-0.16 0.38,-0.27 0.63,-0.28 0.25,0 0.48,0.09 0.65,0.25 0.16,0.16 0.27,0.38 0.28,0.63 0,0.01 0.02,1.3 0.64,2.2 0.29,0.42 0.73,0.76 1.37,0.81 0.22,0.05 1.31,-0.23 1.54,-0.28 0.81,-0.14 1.59,-0.26 2.4,-0.35 0.53,-0.06 1.06,-0.1 1.58,-0.12 1.49,-0.06 2.91,-0.05 4.39,0.08 1.59,-1.73 0.79,-3.18 0.77,-3.21 -0.12,-0.22 -0.14,-0.47 -0.08,-0.69 0.07,-0.22 0.22,-0.42 0.43,-0.54 0.22,-0.12 0.47,-0.14 0.69,-0.08 0.22,0.06 0.42,0.21 0.54,0.43 0.07,0.13 0.55,1.08 0.41,2.36 -0.06,0.6 -0.26,1.27 -0.69,1.98 0.6,0.09 1.19,0.2 1.79,0.32 1.05,-0.27 1.71,-0.91 2.11,-1.63 0.82,-1.51 0.58,-3.43 0.58,-3.44 -0.02,-0.25 0.05,-0.49 0.19,-0.67 0.15,-0.18 0.36,-0.31 0.61,-0.33 0.25,-0.03 0.49,0.04 0.67,0.19 0.17,0.14 0.3,0.35 0.33,0.6 0,0.01 0.24,1.88 -0.42,3.71 -0.29,0.79 -0.75,1.59 -1.48,2.22l0.2 0.06c0.25,0.08 0.49,0.19 0.7,0.32 0.22,0.14 0.41,0.31 0.58,0.49 0.17,0.18 0.32,0.4 0.44,0.62 0.11,0.23 0.2,0.47 0.26,0.72l0.18 0.96c0.06,0.35 0.12,0.74 0.15,1.15 0.04,0.44 0.07,0.91 0.07,1.39 0,0.43 -0.01,0.88 -0.06,1.33 -0.02,0.19 -0.05,0.36 -0.1,0.53 -0.05,0.18 -0.11,0.35 -0.19,0.5 -0.14,0.28 -0.32,0.53 -0.53,0.74 -0.21,0.22 -0.46,0.41 -0.73,0.56 -0.26,0.14 -0.55,0.25 -0.85,0.31 -0.3,0.06 -0.6,0.08 -0.91,0.05 -0.18,-0.02 -0.36,-0.05 -0.54,-0.1 -0.17,-0.05 -0.35,-0.12 -0.51,-0.2 -6.4,-3.17 -10.13,-1.21 -12.9,0.24 -1.08,0.56 -2.04,1.07 -2.98,1.26 -0.97,0.2 -1.92,0.08 -2.92,-0.63 -1.54,-1.08 -1.14,-3.43 -0.73,-5.78l0.04 -0.29c0.05,-0.24 0.18,-0.45 0.37,-0.58 0.19,-0.13 0.43,-0.2 0.68,-0.16 0.24,0.05 0.45,0.18 0.59,0.37 0.13,0.19 0.19,0.43 0.15,0.68l-0.05 0.3c-0.31,1.78 -0.61,3.56 -0.01,3.98 0.54,0.38 1.12,0.42 1.75,0.26 0.67,-0.17 1.42,-0.57 2.27,-1.01 3.12,-1.64 7.32,-3.84 14.54,-0.26l0.21 0.08 0.22 0.04c0.12,0.01 0.25,0.01 0.37,-0.02 0.12,-0.02 0.24,-0.07 0.35,-0.13 0.11,-0.06 0.21,-0.13 0.29,-0.22 0.08,-0.08 0.15,-0.18 0.21,-0.29l0.07 -0.19 0.04 -0.21c0.04,-0.39 0.06,-0.78 0.06,-1.16 -0.01,-0.42 -0.03,-0.83 -0.07,-1.22l0 -0.05z"/>
 </g>
</svg>
