<?xml version="1.0" encoding="UTF-8"?>
<!DOCTYPE svg PUBLIC "-//W3C//DTD SVG 1.1//EN" "http://www.w3.org/Graphics/SVG/1.1/DTD/svg11.dtd">
<!-- Creator: CorelDRAW 2018 (64 Bit) -->
<svg xmlns="http://www.w3.org/2000/svg" xml:space="preserve" width="100px" height="100px" version="1.1" style="shape-rendering:geometricPrecision; text-rendering:geometricPrecision; image-rendering:optimizeQuality; fill-rule:evenodd; clip-rule:evenodd"
viewBox="0 0 100 100"
 xmlns:xlink="http://www.w3.org/1999/xlink">
 <defs>
  <style type="text/css">
   <![CDATA[
    .fil0 {fill:#FFC11A}
   ]]>
  </style>
 </defs>
 <g id="Capa_x0020_1">
  <metadata id="CorelCorpID_0Corel-Layer"/>
  <path class="fil0" d="M47.12 8.05c0,-0.26 0.11,-0.51 0.29,-0.69 0.17,-0.17 0.42,-0.28 0.68,-0.28 0.27,0 0.52,0.11 0.69,0.28 0.18,0.18 0.29,0.43 0.29,0.69l0 5.47c0,0.27 -0.11,0.52 -0.29,0.69 -0.17,0.18 -0.42,0.29 -0.69,0.29 -0.26,0 -0.51,-0.11 -0.68,-0.29 -0.18,-0.17 -0.29,-0.42 -0.29,-0.69l0 -5.47zm-10.2 54.21c0.11,0.39 0.15,0.82 0.14,1.3 -0.02,0.46 -0.11,0.95 -0.26,1.44 -0.16,0.5 -0.4,1 -0.71,1.51 -0.32,0.5 -0.73,0.99 -1.24,1.46 -0.51,0.47 -1.11,0.91 -1.81,1.32 -0.7,0.42 -1.51,0.78 -2.44,1.09 0.63,0.06 1.18,0.21 1.66,0.44 0.48,0.23 0.9,0.52 1.27,0.87 0.37,0.34 0.69,0.73 0.96,1.14 0.28,0.42 0.53,0.84 0.76,1.25 0.22,0.42 0.43,0.82 0.62,1.2 0.2,0.38 0.4,0.71 0.6,0.99 0.2,0.28 0.42,0.48 0.65,0.62 0.23,0.13 0.49,0.16 0.8,0.08 0.28,-0.07 0.57,-0.2 0.88,-0.39 0.31,-0.18 0.61,-0.41 0.91,-0.67 0.3,-0.27 0.6,-0.57 0.87,-0.89 0.28,-0.33 0.53,-0.68 0.74,-1.05l2.08 2.03c0,-0.01 -0.07,0.07 -0.19,0.22 -0.13,0.15 -0.31,0.35 -0.54,0.59 -0.24,0.25 -0.52,0.52 -0.85,0.82 -0.33,0.3 -0.69,0.61 -1.11,0.9 -0.41,0.3 -0.86,0.57 -1.34,0.82 -0.48,0.25 -0.99,0.45 -1.53,0.59 -0.59,0.16 -1.15,0.15 -1.65,-0.03 -0.5,-0.18 -0.96,-0.47 -1.39,-0.88 -0.42,-0.4 -0.82,-0.89 -1.18,-1.46 -0.36,-0.56 -0.71,-1.15 -1.03,-1.76 -0.32,-0.61 -0.63,-1.2 -0.92,-1.79 -0.29,-0.59 -0.58,-1.1 -0.87,-1.54 -0.28,-0.45 -0.57,-0.79 -0.87,-1.02 -0.29,-0.24 -0.59,-0.32 -0.91,-0.24l-0.78 0.21c0.32,1.84 0.54,3.51 0.68,5 0.14,1.49 0.13,2.79 -0.01,3.89 -0.14,1.1 -0.44,2 -0.92,2.69 -0.46,0.68 -1.14,1.15 -2.03,1.39 -0.65,0.17 -1.29,0.21 -1.9,0.1 -0.61,-0.1 -1.2,-0.31 -1.76,-0.63 -0.55,-0.32 -1.07,-0.72 -1.56,-1.22 -0.48,-0.49 -0.92,-1.04 -1.32,-1.66 -0.39,-0.61 -0.75,-1.25 -1.05,-1.94 -0.3,-0.68 -0.54,-1.38 -0.73,-2.08 -0.34,-1.28 -0.52,-2.56 -0.53,-3.87 -0.01,-1.3 0.14,-2.57 0.44,-3.82 0.3,-1.24 0.76,-2.43 1.36,-3.56 0.6,-1.13 1.34,-2.17 2.22,-3.12 0.88,-0.94 1.89,-1.76 3.03,-2.47 1.15,-0.7 2.41,-1.24 3.8,-1.61 0.62,-0.16 1.24,-0.27 1.88,-0.31 0.64,-0.05 1.26,-0.04 1.88,0.03 0.6,0.08 1.19,0.22 1.75,0.42 0.56,0.2 1.06,0.47 1.52,0.8 0.45,0.33 0.85,0.73 1.18,1.19 0.34,0.46 0.59,1 0.75,1.61zm-8.44 -0.92c-1.36,0.36 -2.51,0.88 -3.47,1.54 -0.97,0.66 -1.76,1.42 -2.4,2.28 -0.63,0.85 -1.11,1.78 -1.46,2.78 -0.34,0.99 -0.56,2 -0.66,3.02 -0.11,1.03 -0.11,2.03 -0.02,3.03 0.1,0.99 0.26,1.92 0.49,2.78 0.18,0.67 0.42,1.32 0.71,1.96 0.3,0.64 0.64,1.19 1.03,1.66 0.38,0.46 0.82,0.81 1.3,1.04 0.48,0.23 0.99,0.27 1.54,0.12 0.28,-0.07 0.5,-0.25 0.65,-0.52 0.16,-0.28 0.27,-0.62 0.33,-1.03 0.07,-0.41 0.1,-0.87 0.1,-1.38 -0.01,-0.51 -0.04,-1.04 -0.1,-1.58 -0.05,-0.54 -0.13,-1.08 -0.22,-1.62 -0.09,-0.53 -0.18,-1.04 -0.28,-1.51 -0.09,-0.46 -0.18,-0.87 -0.27,-1.23 -0.09,-0.36 -0.16,-0.64 -0.21,-0.83 -0.72,-0.13 -1.28,-0.28 -1.68,-0.45 -0.41,-0.18 -0.66,-0.44 -0.75,-0.78 -0.02,-0.09 -0.04,-0.19 -0.06,-0.3 -0.02,-0.12 -0.02,-0.24 0,-0.35 0.01,-0.1 0.05,-0.21 0.11,-0.3 0.06,-0.09 0.15,-0.15 0.28,-0.18 0.06,-0.02 0.18,-0.04 0.36,-0.07 0.17,-0.02 0.36,-0.04 0.56,-0.07 0.2,-0.02 0.37,-0.04 0.54,-0.06 0.16,-0.02 0.27,-0.04 0.32,-0.06l-0.05 -0.26c-0.03,-0.13 -0.07,-0.31 -0.11,-0.55 -0.04,-0.24 -0.07,-0.49 -0.09,-0.77 -0.02,-0.27 -0.02,-0.56 0,-0.85 0.03,-0.29 0.09,-0.57 0.19,-0.83 0.09,-0.26 0.23,-0.48 0.41,-0.68 0.18,-0.19 0.43,-0.33 0.74,-0.41 0.41,-0.11 0.71,-0.09 0.9,0.05 0.18,0.15 0.31,0.37 0.39,0.66l0.03 0.11c0.07,0.31 0.14,0.74 0.19,1.27 0.05,0.54 0.13,1.15 0.23,1.85 1.34,-0.39 2.4,-0.81 3.21,-1.29 0.81,-0.47 1.41,-0.97 1.82,-1.47 0.41,-0.51 0.66,-1.01 0.75,-1.5 0.08,-0.5 0.07,-0.95 -0.03,-1.36 -0.11,-0.4 -0.31,-0.76 -0.6,-1.08 -0.3,-0.31 -0.67,-0.57 -1.12,-0.75 -0.46,-0.18 -0.98,-0.28 -1.59,-0.3 -0.6,-0.02 -1.27,0.07 -2.01,0.27zm17.74 5.21c0.37,0.41 0.68,0.87 0.94,1.37 0.26,0.49 0.46,0.98 0.59,1.46 0.13,0.49 0.21,0.99 0.23,1.51 0.03,0.53 0,1.04 -0.08,1.56 -0.08,0.51 -0.21,1.01 -0.39,1.49 -0.18,0.48 -0.42,0.92 -0.72,1.31 -0.29,0.4 -0.64,0.74 -1.04,1.03 -0.39,0.29 -0.84,0.51 -1.34,0.64 -0.73,0.19 -1.39,0.2 -1.98,0.02 -0.6,-0.18 -1.13,-0.48 -1.6,-0.9 -0.46,-0.42 -0.85,-0.93 -1.18,-1.53 -0.32,-0.6 -0.57,-1.23 -0.74,-1.88 -0.25,-0.91 -0.34,-1.79 -0.28,-2.64 0.07,-0.86 0.27,-1.64 0.62,-2.36 0.35,-0.71 0.84,-1.33 1.49,-1.86 0.64,-0.53 1.41,-0.92 2.32,-1.16 0.78,-0.21 1.55,-0.28 2.29,-0.22 0.75,0.06 1.47,0.21 2.18,0.45 0.7,0.25 1.38,0.57 2.03,0.96 0.66,0.39 1.28,0.8 1.88,1.24l0.23 1.8c-0.31,-0.24 -0.69,-0.48 -1.16,-0.72 -0.47,-0.25 -0.96,-0.47 -1.47,-0.69 -0.51,-0.21 -1.01,-0.41 -1.5,-0.59 -0.49,-0.19 -0.9,-0.34 -1.26,-0.45l-0.06 0.16zm-1.96 7.87c0.27,-0.07 0.51,-0.28 0.7,-0.64 0.18,-0.35 0.32,-0.77 0.4,-1.25 0.08,-0.49 0.11,-1 0.09,-1.56 -0.02,-0.55 -0.1,-1.06 -0.22,-1.54 -0.11,-0.38 -0.23,-0.72 -0.37,-1.03 -0.15,-0.31 -0.31,-0.57 -0.49,-0.77 -0.18,-0.21 -0.37,-0.36 -0.59,-0.45 -0.22,-0.09 -0.46,-0.1 -0.71,-0.04 -0.34,0.09 -0.62,0.32 -0.85,0.69 -0.22,0.37 -0.39,0.81 -0.5,1.32 -0.11,0.51 -0.16,1.05 -0.14,1.63 0.01,0.58 0.08,1.11 0.22,1.61 0.09,0.35 0.21,0.66 0.36,0.95 0.15,0.29 0.32,0.53 0.52,0.71 0.2,0.19 0.43,0.32 0.7,0.39 0.26,0.08 0.55,0.07 0.88,-0.02zm17.13 -5.01c-0.67,0.67 -1.26,1.27 -1.78,1.77 -0.53,0.51 -1,0.95 -1.42,1.31 -0.41,0.36 -0.79,0.64 -1.14,0.86 -0.34,0.21 -0.66,0.36 -0.97,0.44 -0.62,0.17 -1.22,0.13 -1.8,-0.12 -0.58,-0.25 -1.12,-0.69 -1.63,-1.32 -0.51,-0.62 -0.98,-1.41 -1.41,-2.38 -0.43,-0.97 -0.81,-2.08 -1.15,-3.35 -0.14,-0.49 -0.26,-1.02 -0.37,-1.59 -0.11,-0.57 -0.19,-1.14 -0.27,-1.71 -0.25,0.03 -0.46,0.06 -0.6,0.06 -0.14,0.01 -0.29,0.02 -0.45,0.03 -0.16,0.01 -0.36,0.04 -0.6,0.07 -0.25,0.03 -0.6,0.07 -1.05,0.14 -0.21,0.03 -0.37,0.02 -0.5,-0.01 -0.12,-0.05 -0.22,-0.11 -0.3,-0.19 -0.07,-0.08 -0.13,-0.17 -0.16,-0.27 -0.04,-0.1 -0.06,-0.19 -0.08,-0.26 -0.05,-0.17 0,-0.31 0.14,-0.44 0.13,-0.13 0.32,-0.25 0.56,-0.36 0.24,-0.11 0.51,-0.2 0.81,-0.29 0.29,-0.08 0.58,-0.15 0.86,-0.23 0.28,-0.06 0.53,-0.12 0.75,-0.17 0.21,-0.05 0.36,-0.1 0.43,-0.14 -0.07,-1.17 -0.07,-2.32 -0.01,-3.45 0.06,-1.13 0.19,-2.15 0.4,-3.07 0.21,-0.92 0.5,-1.69 0.86,-2.32 0.37,-0.62 0.83,-1.01 1.38,-1.15 0.36,-0.1 0.71,-0.09 1.05,0.03 0.35,0.12 0.66,0.32 0.96,0.59 0.29,0.27 0.55,0.62 0.78,1.03 0.23,0.4 0.41,0.85 0.53,1.32 0.11,0.4 0.17,0.84 0.17,1.33 0,0.47 -0.03,0.97 -0.1,1.49 -0.07,0.51 -0.18,1.04 -0.32,1.59 -0.14,0.55 -0.29,1.1 -0.46,1.64 0.08,-0.01 0.2,-0.03 0.37,-0.08 0.18,-0.04 0.38,-0.09 0.6,-0.14 0.23,-0.05 0.48,-0.11 0.74,-0.16 0.27,-0.06 0.53,-0.12 0.78,-0.18 0.25,-0.05 0.48,-0.11 0.69,-0.16 0.22,-0.05 0.4,-0.09 0.54,-0.12 0.16,-0.03 0.31,0.02 0.42,0.16 0.12,0.13 0.21,0.32 0.27,0.56 0.08,0.28 0.06,0.54 -0.06,0.77 -0.11,0.22 -0.27,0.36 -0.47,0.41l-4.72 1.27c-0.15,0.39 -0.31,0.78 -0.46,1.16 -0.16,0.38 -0.31,0.72 -0.45,1.03 0.11,0.52 0.21,1.03 0.32,1.53 0.05,0.21 0.1,0.44 0.15,0.66 0.06,0.23 0.11,0.46 0.16,0.68 0.05,0.22 0.1,0.44 0.15,0.65 0.05,0.2 0.1,0.39 0.15,0.57 0.11,0.44 0.26,0.8 0.42,1.08 0.16,0.28 0.35,0.5 0.55,0.65 0.21,0.15 0.44,0.24 0.69,0.27 0.25,0.02 0.51,0 0.79,-0.08 0.18,-0.04 0.38,-0.14 0.61,-0.3 0.24,-0.15 0.49,-0.33 0.76,-0.56 0.27,-0.23 0.55,-0.48 0.84,-0.77 0.29,-0.29 0.57,-0.6 0.83,-0.92 0.27,-0.32 0.53,-0.65 0.76,-0.99 0.24,-0.34 0.44,-0.68 0.62,-1.02l0.84 3.15zm-8.12 -14.53c-0.02,-0.09 -0.05,-0.19 -0.1,-0.29 -0.04,-0.11 -0.09,-0.21 -0.16,-0.3 -0.07,-0.08 -0.15,-0.15 -0.26,-0.19 -0.1,-0.05 -0.23,-0.05 -0.39,-0.01 -0.21,0.06 -0.37,0.31 -0.49,0.75 -0.12,0.43 -0.2,0.97 -0.24,1.61 -0.04,0.64 -0.06,1.34 -0.05,2.09 0.02,0.76 0.03,1.49 0.07,2.19 0.12,-0.02 0.25,-0.04 0.38,-0.06 0.12,-0.02 0.26,-0.04 0.39,-0.06 0.13,-0.48 0.27,-1 0.41,-1.56 0.13,-0.56 0.24,-1.11 0.33,-1.64 0.09,-0.52 0.14,-1.01 0.17,-1.46 0.03,-0.45 0.01,-0.81 -0.06,-1.07zm15.26 12.76c-0.22,0.35 -0.51,0.74 -0.87,1.17 -0.35,0.42 -0.75,0.83 -1.19,1.23 -0.44,0.39 -0.9,0.75 -1.39,1.06 -0.48,0.31 -0.96,0.54 -1.44,0.67 -0.42,0.11 -0.8,0.15 -1.12,0.11 -0.32,-0.05 -0.6,-0.15 -0.84,-0.31 -0.24,-0.17 -0.44,-0.4 -0.6,-0.68 -0.16,-0.29 -0.29,-0.62 -0.39,-0.99 -0.14,-0.51 -0.24,-1.13 -0.3,-1.85 -0.07,-0.71 -0.11,-1.46 -0.14,-2.25 -0.02,-0.78 -0.04,-1.56 -0.04,-2.34 0,-0.78 -0.01,-1.5 -0.03,-2.15 0,-0.23 0.07,-0.45 0.2,-0.65 0.13,-0.19 0.29,-0.37 0.49,-0.52 0.19,-0.15 0.39,-0.29 0.62,-0.39 0.22,-0.11 0.42,-0.19 0.61,-0.24 0.35,-0.09 0.6,-0.09 0.76,0 0.15,0.1 0.26,0.25 0.32,0.46 0.05,0.18 0.07,0.45 0.09,0.82 0,0.36 0,0.77 -0.01,1.24 0,0.46 -0.01,0.96 -0.01,1.49 -0.01,0.54 -0.01,1.07 0,1.6 0.01,0.53 0.04,1.04 0.08,1.53 0.04,0.5 0.12,0.94 0.22,1.31 0.1,0.37 0.22,0.66 0.36,0.85 0.14,0.2 0.34,0.26 0.59,0.19 0.3,-0.08 0.6,-0.27 0.9,-0.57 0.31,-0.3 0.61,-0.65 0.9,-1.04 0.29,-0.39 0.57,-0.79 0.84,-1.19 0.27,-0.41 0.51,-0.76 0.72,-1.05l0.67 2.49zm-8.89 -11.18c-0.05,-0.19 -0.07,-0.41 -0.05,-0.67 0.01,-0.26 0.09,-0.52 0.22,-0.78 0.13,-0.26 0.33,-0.5 0.59,-0.73 0.27,-0.22 0.64,-0.4 1.1,-0.52 0.29,-0.08 0.57,-0.12 0.84,-0.12 0.27,0 0.52,0.04 0.74,0.12 0.23,0.09 0.43,0.23 0.59,0.42 0.18,0.19 0.3,0.44 0.38,0.74 0.08,0.28 0.1,0.57 0.09,0.85 -0.03,0.29 -0.1,0.56 -0.25,0.82 -0.14,0.26 -0.34,0.49 -0.61,0.7 -0.26,0.2 -0.61,0.37 -1.02,0.48 -0.73,0.19 -1.31,0.16 -1.74,-0.09 -0.44,-0.24 -0.73,-0.65 -0.88,-1.22zm8.1 14.71c-0.01,-0.04 -0.06,-0.3 -0.16,-0.76 -0.11,-0.47 -0.23,-1.09 -0.38,-1.87 -0.15,-0.78 -0.3,-1.68 -0.47,-2.7 -0.17,-1.03 -0.33,-2.12 -0.46,-3.27 -0.14,-1.15 -0.26,-2.34 -0.36,-3.57 -0.09,-1.23 -0.14,-2.44 -0.13,-3.63 0,-1.19 0.06,-2.32 0.18,-3.41 0.13,-1.08 0.33,-2.06 0.61,-2.92 0.29,-0.86 0.67,-1.59 1.15,-2.17 0.47,-0.59 1.06,-0.98 1.77,-1.17 0.28,-0.07 0.58,-0.1 0.92,-0.08 0.33,0.02 0.66,0.1 0.97,0.25 0.31,0.16 0.61,0.39 0.87,0.71 0.27,0.32 0.47,0.75 0.61,1.28 0.13,0.49 0.21,1.07 0.22,1.73 0.02,0.67 -0.01,1.4 -0.1,2.19 -0.08,0.79 -0.21,1.62 -0.37,2.48 -0.17,0.88 -0.37,1.76 -0.61,2.64 -0.24,0.89 -0.5,1.77 -0.79,2.64 -0.29,0.88 -0.6,1.71 -0.94,2.49l0.03 0.2c0.14,-0.12 0.25,-0.21 0.33,-0.25 0.07,-0.05 0.16,-0.09 0.24,-0.11 0.11,-0.03 0.2,-0.04 0.27,-0.04 0.07,0.01 0.14,0.01 0.2,0.02 0.06,0.01 0.12,0.02 0.18,0.02 0.07,0.01 0.14,0 0.22,-0.02 0.81,-0.22 1.51,-0.51 2.08,-0.87 0.57,-0.36 1.04,-0.71 1.4,-1.06 0.43,-0.41 0.78,-0.84 1.05,-1.3l0.53 3.06c-0.46,0.44 -0.96,0.82 -1.51,1.15 -0.55,0.32 -1.06,0.59 -1.54,0.8 -0.56,0.25 -1.12,0.46 -1.69,0.64 0.44,0.46 0.86,0.96 1.25,1.47 0.34,0.45 0.68,0.96 1.01,1.53 0.34,0.58 0.59,1.18 0.76,1.81 0.02,0.08 0.05,0.24 0.09,0.48 0.05,0.24 0.09,0.54 0.13,0.9 0.04,0.36 0.08,0.76 0.1,1.21 0.02,0.43 0.02,0.89 -0.01,1.35 -0.03,0.47 -0.1,0.93 -0.19,1.38 -0.1,0.46 -0.25,0.88 -0.44,1.26 -0.19,0.38 -0.44,0.71 -0.75,0.99 -0.31,0.29 -0.68,0.49 -1.13,0.61 -0.46,0.13 -0.88,0.13 -1.27,0.01 -0.39,-0.12 -0.75,-0.32 -1.09,-0.6 -0.32,-0.29 -0.63,-0.64 -0.92,-1.06 -0.28,-0.42 -0.54,-0.88 -0.77,-1.37 -0.23,-0.49 -0.43,-1 -0.61,-1.53 -0.18,-0.53 -0.34,-1.04 -0.48,-1.54zm1.71 -6.79c-0.03,0.01 -0.05,0.11 -0.04,0.3 0.01,0.2 0.04,0.45 0.08,0.75 0.04,0.3 0.09,0.64 0.15,1.01 0.07,0.37 0.14,0.73 0.2,1.08 0.07,0.36 0.14,0.69 0.2,1 0.06,0.3 0.12,0.54 0.17,0.71 0.32,1.2 0.6,2.16 0.84,2.86 0.23,0.7 0.44,1.23 0.6,1.58 0.17,0.35 0.32,0.57 0.43,0.66 0.12,0.08 0.22,0.12 0.31,0.09 0.28,-0.07 0.47,-0.26 0.57,-0.56 0.1,-0.3 0.14,-0.66 0.13,-1.07 -0.03,-0.41 -0.08,-0.85 -0.18,-1.32 -0.1,-0.48 -0.2,-0.92 -0.31,-1.35 -0.08,-0.29 -0.2,-0.63 -0.35,-1.04 -0.16,-0.41 -0.34,-0.83 -0.54,-1.26 -0.2,-0.44 -0.41,-0.87 -0.64,-1.29 -0.22,-0.43 -0.43,-0.8 -0.64,-1.13 -0.21,-0.33 -0.4,-0.59 -0.57,-0.78 -0.18,-0.19 -0.31,-0.27 -0.41,-0.24zm-0.61 -14.24c-0.16,1.31 -0.25,2.45 -0.28,3.42 -0.03,0.97 -0.02,1.83 0.02,2.56 0.05,0.74 0.12,1.38 0.2,1.92 0.08,0.55 0.16,1.05 0.22,1.52 0.25,-1.08 0.51,-2.14 0.77,-3.19 0.26,-1.05 0.5,-2.03 0.7,-2.92 0.2,-0.89 0.35,-1.68 0.44,-2.34 0.1,-0.67 0.11,-1.16 0.03,-1.47 -0.12,-0.44 -0.27,-0.74 -0.44,-0.91 -0.18,-0.17 -0.38,-0.22 -0.59,-0.17 -0.38,0.11 -0.64,0.28 -0.78,0.53 -0.15,0.26 -0.24,0.61 -0.29,1.05zm12.19 6.83c-0.01,-0.29 0.04,-0.58 0.15,-0.84 0.11,-0.26 0.25,-0.49 0.43,-0.7 0.18,-0.21 0.38,-0.38 0.6,-0.52 0.21,-0.13 0.43,-0.23 0.64,-0.29 0.26,-0.07 0.49,-0.07 0.69,0 0.2,0.06 0.34,0.21 0.4,0.45 0.02,0.08 0.03,0.16 0.03,0.27 0.01,0.23 0.03,0.53 0.05,0.92 0.02,0.39 0.06,0.83 0.1,1.32 0.03,0.5 0.08,1.01 0.13,1.56 0.05,0.54 0.1,1.09 0.16,1.63 0.12,1.26 0.26,2.63 0.42,4.08 0.21,-0.21 0.43,-0.45 0.66,-0.73 0.23,-0.29 0.48,-0.65 0.74,-1.09 0.26,-0.44 0.54,-0.97 0.83,-1.61 0.3,-0.64 0.61,-1.42 0.95,-2.34l1.32 2.57c-0.08,0.29 -0.2,0.61 -0.37,0.93 -0.15,0.33 -0.34,0.67 -0.55,1.01 -0.22,0.34 -0.44,0.68 -0.68,1.02 -0.24,0.33 -0.48,0.65 -0.72,0.95 -0.56,0.71 -1.17,1.42 -1.84,2.13 0.08,0.92 0.12,1.82 0.13,2.71 0.01,0.89 -0.03,1.74 -0.13,2.54 -0.1,0.81 -0.25,1.56 -0.46,2.27 -0.21,0.71 -0.49,1.34 -0.85,1.91 -0.35,0.56 -0.79,1.04 -1.31,1.43 -0.52,0.4 -1.13,0.7 -1.83,0.89 -0.29,0.07 -0.59,0.12 -0.93,0.15 -0.34,0.04 -0.67,0 -0.99,-0.1 -0.33,-0.1 -0.62,-0.28 -0.89,-0.56 -0.26,-0.27 -0.46,-0.67 -0.61,-1.2 -0.1,-0.37 -0.12,-0.81 -0.05,-1.33 0.06,-0.51 0.19,-1.07 0.38,-1.67 0.19,-0.6 0.44,-1.24 0.74,-1.92 0.31,-0.67 0.65,-1.36 1.03,-2.05 0.38,-0.69 0.79,-1.38 1.23,-2.07 0.43,-0.69 0.88,-1.35 1.34,-1.99l0.03 -1.24c-0.34,0.51 -0.71,0.96 -1.13,1.33 -0.42,0.37 -0.85,0.61 -1.3,0.74 -0.4,0.1 -0.8,0.12 -1.22,0.06 -0.41,-0.06 -0.81,-0.2 -1.17,-0.42 -0.37,-0.23 -0.7,-0.53 -0.99,-0.91 -0.28,-0.39 -0.5,-0.85 -0.64,-1.39 -0.19,-0.72 -0.34,-1.38 -0.43,-2 -0.09,-0.62 -0.14,-1.21 -0.16,-1.79 -0.01,-0.58 0.01,-1.15 0.07,-1.7 0.07,-0.56 0.16,-1.13 0.27,-1.72 0.09,-0.42 0.29,-0.77 0.59,-1.06 0.3,-0.29 0.62,-0.48 0.96,-0.57 0.28,-0.07 0.55,-0.07 0.79,0.02 0.25,0.09 0.41,0.29 0.49,0.59 0.02,0.09 0.04,0.19 0.05,0.3 0.01,0.12 0,0.24 -0.01,0.37 -0.05,0.42 -0.08,0.91 -0.08,1.46 -0.01,0.55 0,1.11 0.04,1.68 0.03,0.57 0.09,1.11 0.16,1.65 0.07,0.54 0.16,1 0.27,1.39 0.05,0.21 0.12,0.4 0.2,0.59 0.08,0.19 0.18,0.34 0.29,0.48 0.12,0.13 0.24,0.22 0.4,0.29 0.14,0.06 0.31,0.06 0.5,0.01 0.3,-0.08 0.55,-0.29 0.72,-0.61 0.17,-0.33 0.3,-0.71 0.39,-1.12 0.08,-0.42 0.12,-0.84 0.13,-1.26 0,-0.43 -0.02,-0.78 -0.05,-1.05l-0.11 -3.85zm-0.8 20.06c0.34,-0.09 0.65,-0.28 0.9,-0.56 0.25,-0.28 0.46,-0.62 0.63,-1.02 0.17,-0.4 0.31,-0.84 0.41,-1.31 0.1,-0.48 0.18,-0.96 0.22,-1.44 0.05,-0.48 0.07,-0.95 0.08,-1.4 0,-0.45 -0.01,-0.85 -0.03,-1.19 -0.27,0.3 -0.53,0.64 -0.78,1.02 -0.25,0.39 -0.49,0.79 -0.71,1.22 -0.23,0.42 -0.43,0.85 -0.62,1.29 -0.18,0.44 -0.34,0.85 -0.46,1.24 -0.13,0.39 -0.22,0.75 -0.26,1.07 -0.05,0.32 -0.04,0.57 0.01,0.76 0.08,0.3 0.28,0.41 0.61,0.32zm-19.15 -57.92c-0.18,0.19 -0.42,0.3 -0.67,0.31 -0.25,0.02 -0.51,-0.07 -0.7,-0.25 -0.2,-0.18 -0.31,-0.42 -0.32,-0.67 -0.01,-0.25 0.07,-0.5 0.25,-0.7l3.65 -4.02c0.18,-0.19 0.42,-0.3 0.67,-0.31 0.25,-0.01 0.5,0.07 0.7,0.25 0.2,0.18 0.31,0.43 0.32,0.67 0.01,0.25 -0.08,0.5 -0.26,0.7l-3.64 4.02zm-24.64 -0.97c0.19,0.19 0.28,0.44 0.28,0.69 0,0.24 -0.09,0.5 -0.28,0.69 -0.2,0.19 -0.45,0.28 -0.69,0.28 -0.25,0 -0.5,-0.09 -0.69,-0.28l-3.97 -3.97c-0.19,-0.19 -0.28,-0.44 -0.28,-0.69 0,-0.25 0.09,-0.5 0.28,-0.69 0.19,-0.19 0.44,-0.28 0.69,-0.28 0.25,0 0.5,0.09 0.69,0.28l3.97 3.97zm25.26 28.93l-0.14 -0.09c-0.01,-0.01 -0.76,-0.66 -2.91,-1.17 -1.1,-0.27 -2.56,-0.49 -4.46,-0.57 -0.21,-0.01 -0.4,-0.11 -0.53,-0.25 -0.13,-0.14 -0.2,-0.34 -0.2,-0.54 0.01,-0.21 0.11,-0.4 0.25,-0.53 0.14,-0.13 0.34,-0.21 0.54,-0.2 1.75,0.08 3.17,0.28 4.31,0.52 1.27,0.28 2.2,0.62 2.83,0.91l-0.08 -0.2c-0.04,-0.08 -0.1,-0.16 -0.17,-0.23 -0.06,-0.08 -0.14,-0.14 -0.22,-0.19 -0.08,-0.05 -0.17,-0.09 -0.26,-0.12 -1.41,-0.43 -2.69,-0.69 -4.13,-0.95 -3.53,-0.51 -6.53,-0.52 -10.05,0.1l-1.57 0.34 -0.75 0.2c-0.47,0.13 -0.92,0.28 -1.35,0.43l-0.06 0.02c-0.68,0.23 -1.35,0.46 -2.04,0.62 -0.7,0.16 -1.44,0.26 -2.23,0.23l-0.59 -0.03 -0.57 -0.06 -0.56 -0.1 -0.56 -0.13 -0.56 -0.16 -0.54 -0.19 -0.52 -0.22 -0.51 -0.25 -0.5 -0.29 -0.47 -0.31 -0.46 -0.35 -0.43 -0.36 -0.41 -0.41 -0.39 -0.45 -0.37 -0.47 -0.33 -0.48 -0.31 -0.53 -0.28 -0.55 -0.24 -0.58 -0.21 -0.6 -0.18 -0.64 -0.15 -0.66 -0.11 -0.69 -0.07 -0.69 -0.04 -0.98c-0.01,-1.47 0.2,-2.74 0.57,-3.82 0.42,-1.21 1.04,-2.2 1.79,-3.01 0.79,-0.86 1.73,-1.5 2.71,-1.98 1.1,-0.53 2.27,-0.85 3.39,-1.03 0.26,-1.67 0.78,-3.08 1.5,-4.25 0.81,-1.32 1.87,-2.33 3.07,-3.06 0.75,-0.46 1.56,-0.8 2.39,-1.04 0.87,-0.24 1.78,-0.37 2.69,-0.4 0.88,-0.02 1.78,0.06 2.65,0.23 0.88,0.17 1.74,0.43 2.56,0.78 1.16,0.5 2.25,1.19 3.18,2.03 0.89,0.8 1.64,1.74 2.18,2.81l0.2 0.37 0.24 0.54c0.95,-0.55 1.97,-0.91 3.02,-1.1 1.16,-0.21 2.35,-0.2 3.51,0 0.64,0.11 1.27,0.28 1.89,0.51 0.6,0.22 1.2,0.5 1.78,0.84 0.58,0.34 1.13,0.74 1.64,1.19 0.5,0.43 0.97,0.92 1.39,1.45 0.98,1.23 1.72,2.7 2.1,4.38 0.35,1.54 0.41,3.26 0.09,5.12 -0.17,1 -0.48,1.89 -0.89,2.69 -0.46,0.88 -1.04,1.64 -1.68,2.3 -0.73,0.74 -1.55,1.35 -2.39,1.84 -1.01,0.6 -2.06,1.05 -3.01,1.37l-0.03 0.01c-0.23,0.08 -0.48,0.05 -0.68,-0.05 -0.21,-0.1 -0.37,-0.27 -0.45,-0.5l-0.01 -0.02c-0.08,-0.24 -0.06,-0.49 0.05,-0.69 0.1,-0.21 0.28,-0.38 0.52,-0.46 0.77,-0.26 1.6,-0.61 2.42,-1.06 0.81,-0.45 1.6,-1.02 2.28,-1.71 0.53,-0.53 1,-1.15 1.36,-1.86 0.33,-0.64 0.58,-1.36 0.72,-2.17 0.28,-1.59 0.23,-3.06 -0.06,-4.37 -0.33,-1.42 -0.94,-2.66 -1.76,-3.69 -0.34,-0.44 -0.74,-0.85 -1.16,-1.22 -0.43,-0.37 -0.89,-0.7 -1.37,-0.98 -0.47,-0.28 -0.97,-0.52 -1.49,-0.71 -0.51,-0.19 -1.04,-0.33 -1.57,-0.42 -0.95,-0.17 -1.92,-0.17 -2.86,-0.01 -0.9,0.16 -1.77,0.48 -2.58,0.97l-0.29 0.19 0.06 0.59c0.01,0.23 0.01,0.48 -0.01,0.72 -0.02,0.29 -0.1,0.56 -0.23,0.8 -0.14,0.25 -0.33,0.46 -0.55,0.63l-0.3 0.18 -0.32 0.13c-0.11,0.04 -0.23,0.06 -0.35,0.08l-0.35 0.01c-0.26,-0.02 -0.52,-0.09 -0.76,-0.22 -0.22,-0.12 -0.42,-0.29 -0.59,-0.52 -0.22,-0.29 -0.36,-0.63 -0.37,-1 0,-0.37 0.13,-0.77 0.44,-1.19 0.13,-0.19 0.31,-0.38 0.54,-0.58 0.19,-0.17 0.41,-0.34 0.67,-0.52l-0.15 -0.42 -0.28 -0.61c-0.44,-0.88 -1.06,-1.66 -1.79,-2.31 -0.78,-0.7 -1.69,-1.26 -2.67,-1.69 -0.7,-0.3 -1.44,-0.53 -2.19,-0.67 -0.74,-0.15 -1.5,-0.21 -2.25,-0.19 -0.76,0.02 -1.52,0.13 -2.23,0.32 -0.69,0.2 -1.35,0.48 -1.96,0.85 -0.96,0.58 -1.81,1.4 -2.47,2.47 -0.57,0.94 -1,2.09 -1.23,3.45 0.32,0.11 0.61,0.22 0.87,0.33 0.31,0.13 0.57,0.27 0.79,0.4 0.23,0.14 0.43,0.3 0.59,0.45 0.18,0.17 0.31,0.34 0.41,0.51 0.11,0.2 0.18,0.4 0.21,0.6 0.02,0.21 0.01,0.42 -0.04,0.62l-0.1 0.28 -0.12 0.23c-0.09,0.14 -0.19,0.27 -0.29,0.38 -0.11,0.11 -0.24,0.21 -0.37,0.3 -0.17,0.11 -0.36,0.19 -0.56,0.25 -0.2,0.05 -0.41,0.08 -0.62,0.08 -0.2,0 -0.41,-0.03 -0.6,-0.09 -0.19,-0.05 -0.38,-0.14 -0.56,-0.24 -0.14,-0.09 -0.27,-0.19 -0.4,-0.31 -0.11,-0.11 -0.22,-0.25 -0.31,-0.39 -0.21,-0.33 -0.37,-0.69 -0.48,-1.03 -0.09,-0.25 -0.15,-0.48 -0.19,-0.7 -0.89,0.16 -1.81,0.44 -2.67,0.85 -0.79,0.38 -1.53,0.89 -2.14,1.56 -0.59,0.64 -1.09,1.43 -1.41,2.41 -0.31,0.89 -0.47,1.95 -0.47,3.17 0.02,0.52 0.05,0.95 0.1,1.47l0.09 0.57 0.12 0.56 0.16 0.53 0.17 0.49 0.2 0.48 0.23 0.44 0.25 0.43 0.26 0.4 0.29 0.36 0.31 0.35 0.33 0.33 0.35 0.3 0.35 0.27 0.39 0.25 0.4 0.23 0.4 0.2 0.43 0.18 0.44 0.16 0.44 0.12 0.46 0.11 0.47 0.08 0.49 0.05 0.48 0.03c1.25,0.04 2.42,-0.35 3.61,-0.75 -0.4,-0.41 -0.68,-0.9 -0.89,-1.38 -0.5,-1.18 -0.52,-2.37 -0.52,-2.38 0,-0.24 0.09,-0.47 0.25,-0.64 0.16,-0.17 0.38,-0.27 0.63,-0.28 0.25,-0.01 0.48,0.09 0.65,0.25 0.17,0.16 0.28,0.38 0.28,0.63 0,0.01 0.03,1.31 0.65,2.21 0.29,0.42 0.73,0.76 1.38,0.81 0.25,0.05 1.27,-0.23 1.54,-0.28 2.88,-0.5 5.49,-0.64 8.4,-0.4 1.6,-1.73 0.79,-3.18 0.77,-3.21 -0.12,-0.22 -0.14,-0.47 -0.08,-0.7 0.07,-0.22 0.22,-0.42 0.44,-0.54 0.21,-0.12 0.46,-0.14 0.69,-0.08 0.21,0.06 0.41,0.21 0.53,0.42l0.01 0.01c0.08,0.15 0.55,1.1 0.41,2.38 -0.07,0.59 -0.26,1.27 -0.69,1.98 0.6,0.09 1.19,0.2 1.79,0.32 3.2,-0.82 2.72,-5 2.71,-5.09l-0.01 -0.02c-0.02,-0.24 0.06,-0.47 0.2,-0.65 0.14,-0.18 0.36,-0.31 0.6,-0.34 0.25,-0.02 0.49,0.05 0.67,0.2 0.18,0.14 0.31,0.36 0.34,0.6l0 0.03c0.04,0.32 0.38,3.92 -1.9,5.92l0.19 0.06c0.25,0.08 0.49,0.19 0.7,0.33 0.22,0.13 0.42,0.3 0.59,0.49 0.17,0.18 0.32,0.39 0.44,0.62 0.11,0.22 0.2,0.47 0.26,0.72l0.19 0.96c0.05,0.36 0.11,0.75 0.15,1.16 0.03,0.42 0.06,0.86 0.06,1.32 0.01,0.45 -0.01,0.93 -0.06,1.41 -0.02,0.19 -0.05,0.36 -0.1,0.53 -0.05,0.18 -0.11,0.35 -0.19,0.5 -0.14,0.28 -0.32,0.53 -0.53,0.75 -0.21,0.22 -0.46,0.41 -0.73,0.56 -0.27,0.14 -0.56,0.25 -0.86,0.31 -0.29,0.06 -0.6,0.08 -0.91,0.05 -0.18,-0.02 -0.36,-0.05 -0.54,-0.1 -0.18,-0.05 -0.35,-0.12 -0.52,-0.2 -3.21,-1.6 -5.76,-1.9 -7.83,-1.63 -2.08,0.28 -3.72,1.14 -5.12,1.87 -1.08,0.57 -2.04,1.07 -2.98,1.26 -0.98,0.21 -1.93,0.08 -2.94,-0.63 -0.78,-0.55 -1.07,-1.44 -1.1,-2.49 -0.03,-1 0.17,-2.16 0.37,-3.31l0.05 -0.29c0.04,-0.24 0.18,-0.45 0.37,-0.59 0.19,-0.13 0.43,-0.19 0.67,-0.15 0.25,0.04 0.46,0.18 0.59,0.37 0.14,0.19 0.2,0.43 0.16,0.68l-0.05 0.3c-0.31,1.79 -0.61,3.57 -0.01,3.99 0.54,0.39 1.12,0.43 1.76,0.26 0.67,-0.17 1.43,-0.56 2.27,-1.01l0.06 -0.03c3.12,-1.64 7.33,-3.8 14.53,-0.23l0.22 0.08 0.21 0.04c0.13,0.01 0.26,0.01 0.38,-0.02 0.12,-0.02 0.24,-0.07 0.35,-0.12 0.11,-0.06 0.21,-0.14 0.29,-0.23 0.09,-0.08 0.16,-0.18 0.21,-0.29l0.08 -0.19 0.04 -0.21c0.03,-0.39 0.05,-0.79 0.05,-1.16 0,-0.43 -0.03,-0.84 -0.06,-1.23l-0.01 -0.05z"/>
 </g>
</svg>
